<?xml version="1.0" standalone="no"?>
<!DOCTYPE svg PUBLIC "-//W3C//DTD SVG 20010904//EN"
 "http://www.w3.org/TR/2001/REC-SVG-20010904/DTD/svg10.dtd">
<svg version="1.0" xmlns="http://www.w3.org/2000/svg"
 width="260.000000pt" height="260.000000pt" viewBox="0 0 260.000000 260.000000"
 preserveAspectRatio="xMidYMid meet">
<metadata>
Created by potrace 1.14, written by Peter Selinger 2001-2017
</metadata>
<g transform="translate(0.000000,260.000000) scale(0.100000,-0.100000)"
fill="#000000" stroke="none">
<path d="M763 2585 c-353 -65 -635 -325 -735 -680 -22 -79 -23 -89 -23 -605 0
-514 1 -527 23 -605 92 -327 339 -574 667 -667 79 -22 89 -23 605 -23 514 0
527 1 605 23 327 92 574 339 667 667 22 79 23 89 23 605 0 514 -1 527 -23 605
-92 327 -341 576 -667 667 -77 22 -97 22 -575 24 -376 2 -512 0 -567 -11z
m172 -744 c127 -19 206 -56 246 -117 30 -46 42 -124 30 -191 -13 -69 -50 -119
-111 -150 l-43 -22 29 -11 c77 -28 126 -75 143 -137 32 -115 0 -238 -79 -306
-87 -74 -121 -81 -417 -85 l-263 -3 0 515 0 516 203 0 c111 0 229 -4 262 -9z
m1071 -249 c108 -55 174 -198 174 -377 0 -256 -125 -414 -321 -408 -65 2 -146
33 -180 69 -12 13 -25 24 -28 24 -3 0 -4 -97 -3 -215 l4 -215 -106 0 -106 0 0
570 0 570 84 0 85 0 17 -54 17 -55 53 48 c29 27 70 54 91 59 59 17 171 9 219
-16z"/>
<path d="M690 1555 l0 -115 93 0 c154 0 196 22 204 107 9 91 -45 123 -206 123
l-91 0 0 -115z"/>
<path d="M690 1136 l0 -136 105 0 c162 0 215 33 215 134 0 99 -44 128 -207
134 l-113 5 0 -137z"/>
<path d="M1733 1436 c-20 -9 -40 -31 -55 -58 -19 -37 -22 -58 -23 -158 0 -100
3 -121 23 -162 35 -72 128 -101 201 -63 93 48 110 322 27 413 -28 30 -40 36
-87 39 -33 2 -66 -2 -86 -11z"/>
</g>
</svg>
